<?xml version="1.0" encoding="iso-8859-1"?>
<!-- Generator: Adobe Illustrator 19.0.0, SVG Export Plug-In . SVG Version: 6.00 Build 0)  -->
<svg version="1.1" id="Layer_1" xmlns="http://www.w3.org/2000/svg" xmlns:xlink="http://www.w3.org/1999/xlink" x="0px" y="0px"
	 viewBox="0 0 512 512" style="enable-background:new 0 0 512 512;" xml:space="preserve">
<g>
	<g>
		<path d="M256,341.49c-27.688,0-50.213,18.039-50.213,40.215c0,22.174,22.526,40.213,50.213,40.213s50.213-18.039,50.213-40.213
			C306.213,359.529,283.687,341.49,256,341.49z"/>
	</g>
</g>
<g>
	<g>
		<path d="M482.767,294.07L512,265.195l-29.233-28.875l19.852-35.864l-36.245-19.519l8.923-39.777l-40.049-8.901l-2.074-40.467
			l-40.791,1.698l-12.302-38.464l-38.941,11.668l-21.385-34.209L284.922,53.09L256,24.995l-28.922,28.096l-34.835-20.606
			l-21.384,34.209l-38.941-11.668L119.617,93.49l-40.79-1.7l-2.074,40.467l-40.049,8.901l8.923,39.777L9.382,200.455l19.851,35.864
			L0,265.195l29.233,28.875L9.381,329.933l36.245,19.52l-8.923,39.777l40.049,8.901l2.074,40.466l44.991-1.872
			c3.685,4.128,7.637,8.038,11.874,11.701c29.19,25.239,70.792,38.579,120.309,38.579s91.119-13.34,120.309-38.579
			c4.237-3.663,8.19-7.572,11.874-11.701l44.991,1.872l2.074-40.467l40.049-8.901l-8.923-39.777l36.244-19.52L482.767,294.07z
			 M354.477,423.179c-23.039,19.92-57.091,30.449-98.477,30.449c-41.386,0-75.439-10.53-98.477-30.449
			c-23.679-20.474-35.686-50.292-35.686-88.628c0-39.181,2.568-79.191,21.198-106.408c7.083-10.347,28.635-41.834,112.966-41.834
			s105.883,31.487,112.966,41.834c18.63,27.217,21.198,67.227,21.198,106.408C390.164,372.887,378.157,402.704,354.477,423.179z"/>
	</g>
</g>
<g>
	<g>
		<path d="M205.589,264.677c-10.959,0-19.879,8.932-19.879,19.961c0,11.027,8.919,19.966,19.879,19.966
			c10.975,0,19.891-8.94,19.891-19.966C225.479,273.608,216.562,264.677,205.589,264.677z"/>
	</g>
</g>
<g>
	<g>
		<path d="M306.26,264.521c-11.066,0-20.042,9.005-20.042,20.116c0,11.11,8.976,20.116,20.042,20.116
			c11.051,0,20.028-9.006,20.028-20.116C326.288,273.527,317.313,264.521,306.26,264.521z"/>
	</g>
</g>
<g>
</g>
<g>
</g>
<g>
</g>
<g>
</g>
<g>
</g>
<g>
</g>
<g>
</g>
<g>
</g>
<g>
</g>
<g>
</g>
<g>
</g>
<g>
</g>
<g>
</g>
<g>
</g>
<g>
</g>
</svg>
